<?xml version="1.0" encoding="UTF-8"?>
<svg width="1920" height="1080" viewBox="0 0 1920 1080" fill="none" xmlns="http://www.w3.org/2000/svg">
  <!-- Background gradient -->
  <defs>
    <linearGradient id="bgGradient" x1="0" y1="0" x2="1920" y2="1080" gradientUnits="userSpaceOnUse">
      <stop offset="0%" style="stop-color:#0f172a;stop-opacity:1" />
      <stop offset="100%" style="stop-color:#1e293b;stop-opacity:1" />
    </linearGradient>
    
    <!-- Glow effect -->
    <filter id="glow">
      <feGaussianBlur stdDeviation="2" result="coloredBlur"/>
      <feMerge>
        <feMergeNode in="coloredBlur"/>
        <feMergeNode in="SourceGraphic"/>
      </feMerge>
    </filter>
  </defs>

  <!-- Main background -->
  <rect width="1920" height="1080" fill="url(#bgGradient)"/>

  <!-- Abstract data visualization elements -->
  <g filter="url(#glow)">
    <!-- Floating data points -->
    <circle cx="200" cy="200" r="4" fill="#4f46e5" opacity="0.6"/>
    <circle cx="400" cy="300" r="3" fill="#818cf8" opacity="0.4"/>
    <circle cx="600" cy="150" r="5" fill="#4f46e5" opacity="0.7"/>
    <circle cx="800" cy="400" r="4" fill="#818cf8" opacity="0.5"/>
    <circle cx="1000" cy="250" r="3" fill="#4f46e5" opacity="0.6"/>
    <circle cx="1200" cy="350" r="5" fill="#818cf8" opacity="0.4"/>
    <circle cx="1400" cy="200" r="4" fill="#4f46e5" opacity="0.7"/>
    <circle cx="1600" cy="300" r="3" fill="#818cf8" opacity="0.5"/>
    
    <!-- Connecting lines -->
    <path d="M200,200 L400,300 L600,150 L800,400 L1000,250 L1200,350 L1400,200 L1600,300" 
          stroke="#4f46e5" stroke-width="1" opacity="0.2" fill="none"/>
    
    <!-- Abstract shapes -->
    <path d="M300,500 Q400,400 500,500 T700,500" 
          stroke="#818cf8" stroke-width="2" opacity="0.3" fill="none"/>
    <path d="M800,600 Q900,500 1000,600 T1200,600" 
          stroke="#4f46e5" stroke-width="2" opacity="0.3" fill="none"/>
    
    <!-- Data clusters -->
    <g transform="translate(400,600)">
      <circle cx="0" cy="0" r="50" fill="#4f46e5" opacity="0.1"/>
      <circle cx="0" cy="0" r="30" fill="#818cf8" opacity="0.1"/>
      <circle cx="0" cy="0" r="10" fill="#4f46e5" opacity="0.2"/>
    </g>
    
    <g transform="translate(1200,600)">
      <circle cx="0" cy="0" r="50" fill="#818cf8" opacity="0.1"/>
      <circle cx="0" cy="0" r="30" fill="#4f46e5" opacity="0.1"/>
      <circle cx="0" cy="0" r="10" fill="#818cf8" opacity="0.2"/>
    </g>
  </g>

  <!-- Grid pattern -->
  <pattern id="grid" width="40" height="40" patternUnits="userSpaceOnUse">
    <path d="M 40 0 L 0 0 0 40" fill="none" stroke="#4f46e5" stroke-width="0.5" opacity="0.1"/>
  </pattern>
  <rect width="1920" height="1080" fill="url(#grid)"/>
</svg> 